<mxfile host="app.diagrams.net" modified="2023-06-16T02:12:38.162Z" agent="Mozilla/5.0 (Windows NT 10.0; Win64; x64) AppleWebKit/537.36 (KHTML, like Gecko) Chrome/114.0.0.0 Safari/537.36 Edg/114.0.0.0" etag="S5b6M8e6w0DSVcWIEFo4" version="21.4.0" type="github">
  <diagram name="第 1 页" id="xE6j1u7JrcWCm94Bzhu7">
    <mxGraphModel dx="944" dy="599" grid="1" gridSize="10" guides="1" tooltips="1" connect="1" arrows="1" fold="1" page="1" pageScale="1" pageWidth="827" pageHeight="1169" math="0" shadow="0">
      <root>
        <mxCell id="0" />
        <mxCell id="1" parent="0" />
        <mxCell id="D83fO44UdGpcLvMbURXB-1" value="系统调用层" style="rounded=0;whiteSpace=wrap;html=1;fontSize=20;" vertex="1" parent="1">
          <mxGeometry x="340" y="60" width="120" height="60" as="geometry" />
        </mxCell>
        <mxCell id="D83fO44UdGpcLvMbURXB-2" value="" style="rounded=0;whiteSpace=wrap;html=1;fontSize=20;" vertex="1" parent="1">
          <mxGeometry x="80" y="150" width="650" height="240" as="geometry" />
        </mxCell>
        <mxCell id="D83fO44UdGpcLvMbURXB-3" value="文件系统" style="rounded=0;whiteSpace=wrap;html=1;rotation=0;fillColor=default;strokeWidth=0;fontSize=20;" vertex="1" parent="1">
          <mxGeometry x="110" y="200" width="20" height="140" as="geometry" />
        </mxCell>
        <mxCell id="D83fO44UdGpcLvMbURXB-4" value="VFS(超级块，inode，dentry，vfsmount等)" style="rounded=0;whiteSpace=wrap;html=1;fontSize=20;" vertex="1" parent="1">
          <mxGeometry x="167" y="190" width="400" height="60" as="geometry" />
        </mxCell>
        <mxCell id="D83fO44UdGpcLvMbURXB-5" value="" style="rounded=0;whiteSpace=wrap;html=1;fontSize=20;" vertex="1" parent="1">
          <mxGeometry x="163" y="280" width="110" height="60" as="geometry" />
        </mxCell>
        <mxCell id="D83fO44UdGpcLvMbURXB-6" value="" style="rounded=0;whiteSpace=wrap;html=1;fontSize=20;" vertex="1" parent="1">
          <mxGeometry x="318" y="280" width="110" height="60" as="geometry" />
        </mxCell>
        <mxCell id="D83fO44UdGpcLvMbURXB-7" value="" style="rounded=0;whiteSpace=wrap;html=1;fontSize=20;" vertex="1" parent="1">
          <mxGeometry x="463" y="280" width="110" height="60" as="geometry" />
        </mxCell>
        <mxCell id="D83fO44UdGpcLvMbURXB-8" value="虚拟文件系统" style="rounded=0;whiteSpace=wrap;html=1;rotation=0;fillColor=default;strokeWidth=0;fontSize=20;" vertex="1" parent="1">
          <mxGeometry x="590" y="200" width="130" height="40" as="geometry" />
        </mxCell>
      </root>
    </mxGraphModel>
  </diagram>
</mxfile>
